<?xml version="1.0" encoding="UTF-8"?> <!-- Generator: Adobe Illustrator 15.0.0, SVG Export Plug-In . SVG Version: 6.00 Build 0) --> <svg xmlns="http://www.w3.org/2000/svg" xmlns:xlink="http://www.w3.org/1999/xlink" id="Layer_1" x="0px" y="0px" width="291.219px" height="217.568px" viewBox="0 0 291.219 217.568" xml:space="preserve"> <path fill="#85C222" d="M141.759,0.649c10.43-3.54,21.64,8.08,17.579,18.35c-2.89,10.8-19.01,13.24-25.1,3.97 C128.098,15.409,132.668,3.299,141.759,0.649"></path> <path fill="#DC214B" d="M254.068,164.849c2.51,0.24,6.08-0.939,7.49,1.88c4.63,8.42,6.45,19.11,11.66,26.65 c3.609-8.68,6.27-17.771,10.05-26.391c1.319-3.109,5.3-1.89,7.95-2.17c-6.37,15.091-12.381,30.33-18.7,45.44 c-2.65,6.16-10.09,8.76-16.24,6.51c1.36-3.92,5.69-4.2,8.81-6.01c2.7-3.14,5.841-7.83,3.391-11.96 C263.608,187.519,258.429,176.339,254.068,164.849 M83.249,164.869c9.74-2.761,12.41,8.01,17.03,13.89 c4.93-5.7,7.19-16.79,17.11-13.89c-3.89,6.13-8.59,11.77-11.98,18.189c2.78,7.09,8.38,12.86,11.94,19.63 c-10.02,2.7-12.08-8.83-17.07-14.56c-4.69,5.939-7.11,17.26-17.06,14.53c3.81-6.641,9.17-12.54,12-19.62 C91.958,176.559,87.128,170.988,83.249,164.869 M58.608,170.429c-8.08,2.72-11.67,13.29-7.32,20.53c3.52,6.75,13.23,8.76,19.32,4.35 c7.42-5.109,7.6-17.71,0.26-22.96C67.428,169.659,62.698,169.488,58.608,170.429 M56.588,165.309c9.63-2.95,21.41,1.51,25.01,11.32 c4.43,9.93-1.77,22.55-12.14,25.49c-9.87,3.5-22.2-1.75-25.47-11.94C40.368,180.188,46.188,168.068,56.588,165.309 M236.668,173.139 c2.99-4.85,7.29-9.37,13.48-9.16c0.05,2.181,0.06,4.351,0.04,6.53c-4.601-0.23-9.23,1.83-11.37,6.06 c-4.17,7.78-1.54,16.931-2.51,25.33c-2.03,0-4.05,0-6.061,0c-0.33-12.399-0.189-24.81-0.08-37.21 C235.679,163.499,236.828,168.929,236.668,173.139 M210.578,173.129c3.021-4.8,7.32-9.351,13.48-9.13c0.08,1.979,0.14,3.95,0.2,5.93 c-4.511,0.521-9.301,2.29-11.421,6.63c-4.06,7.811-1.449,16.92-2.52,25.3c-2.03,0-4.06,0-6.08,0c-0.5-12.37-0.25-24.779-0.13-37.159 c1.87,0.239,3.75,0.5,5.63,0.779C210.048,168.019,210.318,170.579,210.578,173.129 M170.778,179.199c6.87,0,13.75,0.149,20.62-0.051 c-0.11-3.66-1.46-7.529-4.84-9.39C179.759,166.519,170.698,171.329,170.778,179.199 M169.179,168.869 c6.29-6.03,17.54-7.08,24.02-0.811c4.19,4.08,4.94,10.2,4.95,15.771c-9.32,0.409-18.66-0.08-27.98,0.279 c0.181,7.431,6.58,13.78,14.13,13.16c4.591,0.28,10.801-6.3,13.131,0.431c-7.58,5.899-19,7.13-26.75,0.88 C161.599,191.619,161.238,176.809,169.179,168.869 M135.618,170.449c-11.51,4.159-10.49,25.05,2.01,27.119 c7.82,1.53,15.471-5.729,14.75-13.59C153.248,175.188,144.099,167.539,135.618,170.449 M121.448,149.988 c2.11,0.44,5.79-0.02,5.91,3.021c0.77,5.65,0.09,11.39,0.27,17.08c6.1-5.47,15.37-7.771,22.669-3.2 c11.16,6.82,11.65,25.53,0.841,32.91c-8.17,5.939-21.5,4.06-26.78-4.88c-3.44-5.32-3.13-11.88-3.12-17.94 C121.378,167.979,120.999,158.979,121.448,149.988 M14.578,170.419c-11.65,3.939-11.05,24.42,1.26,27.05 c8.39,2,16.29-6.18,15.23-14.45C31.298,174.659,22.708,167.709,14.578,170.419 M0.298,149.949c2.18,0.27,5.44,0.289,5.84,3.109 c0.81,5.65,0.08,11.38,0.39,17.07c6.23-6.141,16.73-7.87,23.87-2.271c9.17,7.101,9.75,22.601,1.22,30.42 c-7.85,7.631-22.58,6.2-28.47-3.159c-3.87-5.98-3.05-13.381-3.12-20.15C0.178,166.629-0.271,158.278,0.298,149.949 M140.639,100.419 c7.76-3.18,17.43,1.86,19.1,10.11c3.42,11.66-11.43,22.3-21.42,15.36C128.229,120.449,129.758,103.949,140.639,100.419 M166.548,75.239c8.021-2.64,17.11,3.39,18.04,11.7c1.341,7.91-5.199,16.14-13.29,16.26c-6.659,0.47-13.109-4.42-14.489-10.94 C154.688,85.179,159.568,77.199,166.548,75.239 M116.608,75.349c7.82-2.76,16.8,2.7,18.35,10.73c1.99,8.31-5.13,17.19-13.65,17.14 c-7.37,0.43-14.11-5.94-14.44-13.23C106.288,83.659,110.519,77.219,116.608,75.349 M191.578,50.399c8.22-2.5,17.55,3.94,17.97,12.54 c0.95,8.05-6.22,15.67-14.27,15.43c-7.29,0.18-13.97-6.06-14.16-13.38C180.519,58.419,185.278,52.059,191.578,50.399 M141.618,50.459c7.25-2.36,15.62,2.14,17.811,9.38c2.609,7.22-2.11,15.85-9.44,17.86c-7.29,2.5-15.94-2.14-17.96-9.55 C129.568,60.909,134.438,52.559,141.618,50.459 M92.568,50.399c8.09-2.44,17.48,4.04,17.82,12.54c0.87,7.28-4.83,14.41-12.08,15.29 c-7.55,1.28-15.48-4.56-16.25-12.22C80.979,59.129,85.788,51.969,92.568,50.399 M167.578,25.319c8.32-2.1,17.34,5.04,17.12,13.64 c0.58,7.85-6.56,15-14.34,14.75c-6.96,0-13.36-5.75-13.92-12.72C155.238,33.879,160.698,26.789,167.578,25.319 M117.628,25.409 c11.12-3.28,21.74,10.03,16.25,20.2c-4.28,9.76-19.35,10.76-24.81,1.57C103.718,39.419,108.288,27.349,117.628,25.409"></path> </svg> 