<svg width="32" height="33" viewBox="0 0 32 33" fill="#d3c29e" xmlns="http://www.w3.org/2000/svg"><path d="M27.314 4.69A15.895 15.895 0 0016 .005 15.896 15.896 0 004.686 4.691 15.896 15.896 0 000 16.004c0 3.021.846 5.963 2.447 8.508a16.056 16.056 0 004.962 4.992H3.938a1.25 1.25 0 100 2.5h3.816c2.205 0 4-1.794 4-4v-3.687a1.25 1.25 0 10-2.5 0V27.7A13.435 13.435 0 012.5 16.004c0-7.444 6.056-13.5 13.5-13.5s13.5 6.056 13.5 13.5c0 2.662-.792 5.253-2.29 7.493a1.25 1.25 0 002.08 1.39A15.937 15.937 0 0032 16.004c0-4.273-1.664-8.291-4.686-11.313z" fill="#c2ae82"/><path d="M9.286 18.453a1.25 1.25 0 00.84 2.176H14a1.25 1.25 0 000-2.5h-.895c1.826-2.07 2.064-3.09 2.064-3.75a3.129 3.129 0 00-3.125-3.125l-.022.002-.022-.002a3.129 3.129 0 00-3.125 3.125 1.25 1.25 0 102.5 0c0-.338.286-.625.625-.625h.044c.335 0 .618.28.625.612-.012.065-.166.709-1.637 2.33-.87.961-1.738 1.75-1.746 1.757zm13.698 9.107A13.474 13.474 0 0116 29.505a1.25 1.25 0 100 2.5c2.926 0 5.789-.798 8.279-2.306a1.25 1.25 0 00-1.295-2.139zm-5.671-16.306c-.69 0-1.25.56-1.25 1.25v1.532a3.41 3.41 0 004.312 3.283v2.06a1.25 1.25 0 102.5 0v-6.875a1.25 1.25 0 10-2.5 0v1.532a.907.907 0 01-1.812 0v-1.532c0-.69-.56-1.25-1.25-1.25z" fill="#d3c29e"/></svg>