<svg width="33" height="33" viewBox="0 0 33 33" fill="#c2ae82" xmlns="http://www.w3.org/2000/svg"><path d="M9.562 31.692c0 .69-.56 1.25-1.25 1.25-2.757 0-5-2.243-5-5v-12.23l-1.117 1.115a1.246 1.246 0 01-1.768-.002 1.25 1.25 0 01.002-1.767L13.572 1.94l.052-.049a3.746 3.746 0 015.051.06l9.618 9.704a1.25 1.25 0 01-1.775 1.76L16.93 3.743c-.467-.4-1.153-.4-1.621-.003l-9.515 9.496c.011.067.018.136.018.207v14.5c0 1.378 1.122 2.5 2.5 2.5.69-.001 1.25.559 1.25 1.249z" fill="#c2ae82"/><path d="M32.062 19.505v9.687c0 2.138-2.553 3.75-5.937 3.75-1.948 0-3.62-.534-4.688-1.394-1.069.86-2.74 1.394-4.687 1.394-3.385 0-5.938-1.612-5.938-3.75v-4.875l.001-.017v-.045c0-2.138 2.552-3.75 5.937-3.75 1.244 0 2.443.24 3.437.681v-1.494l.002-.076a2.718 2.718 0 01-.002-.111c0-2.138 2.552-3.75 5.938-3.75 3.384 0 5.937 1.612 5.937 3.75zm-11.875 9.687v-4.875c0-.337-1.182-1.312-3.437-1.312-2.256 0-3.438.928-3.438 1.25 0 .32 1.182 1.25 3.438 1.25a1.25 1.25 0 110 2.5c-1.302 0-2.48-.24-3.438-.654v1.84c0 .322 1.182 1.25 3.438 1.25 2.255 0 3.437-.928 3.437-1.25zm9.375-9.687c0-.321-1.182-1.25-3.438-1.25-2.255 0-3.437.929-3.437 1.25 0 .32 1.182 1.25 3.438 1.25a1.25 1.25 0 010 2.5c-1.302 0-2.48-.239-3.438-.653v1.653c0 .32 1.182 1.25 3.438 1.25a1.25 1.25 0 010 2.5c-1.302 0-2.48-.24-3.438-.654v1.84c0 .322 1.182 1.25 3.438 1.25 2.255 0 3.437-.928 3.437-1.25v-9.686z" fill="#d3c29e"/></svg>