<svg width="32" height="33" viewBox="0 0 32 33" fill="#c2ae82" xmlns="http://www.w3.org/2000/svg"><g clip-path="url(#clip0)"><path d="M6.25 20.129a3.129 3.129 0 00-3.125-3.125A3.129 3.129 0 000 20.129a3.128 3.128 0 003.125 3.125 3.128 3.128 0 003.125-3.125zm-3.125.625a.626.626 0 11.001-1.251.626.626 0 01-.001 1.251zm10.313 5a3.129 3.129 0 00-3.126 3.125 3.129 3.129 0 003.126 3.125 3.128 3.128 0 003.124-3.125 3.129 3.129 0 00-3.125-3.125zm0 3.75a.626.626 0 110-1.251.626.626 0 010 1.251zm-.531-10.655l-6.757 12.5a1.25 1.25 0 11-2.2-1.19l6.758-12.5a1.25 1.25 0 112.199 1.19z" fill="#d3c29e"/><path d="M30.75 8.254h-9.431v-2.93a5.325 5.325 0 00-5.32-5.32 5.325 5.325 0 00-5.318 5.32v2.93H1.25c-.69 0-1.25.56-1.25 1.25v4.188a1.25 1.25 0 002.5 0v-2.938h8.18v2.875a1.25 1.25 0 002.5 0v-2.875h5.64v2.875a1.25 1.25 0 002.5 0v-2.875h8.18v10a1.25 1.25 0 002.5 0V9.504c0-.69-.56-1.25-1.25-1.25zm-17.57 0v-2.93A2.822 2.822 0 0116 2.503a2.822 2.822 0 012.82 2.82v2.93h-5.64zM32 27.004c0 2.757-2.243 5-5 5h-7.125a1.25 1.25 0 010-2.5H27c1.378 0 2.5-1.121 2.5-2.5a1.25 1.25 0 112.5 0z" fill="#c2ae82"/></g><defs><clipPath id="clip0"><path fill="#fff" transform="translate(0 .004)" d="M0 0h32v32H0z"/></clipPath></defs></svg>