<svg width="32" height="33" viewBox="0 0 32 33" fill="none" xmlns="http://www.w3.org/2000/svg"><path d="M30.75 22.504h-1.125v-2.5a1.25 1.25 0 10-2.5 0v2.5H4.875V6.254h22.25v7.5a1.25 1.25 0 102.5 0V3.13a1.25 1.25 0 10-2.5 0v.625H4.875V3.13a1.25 1.25 0 10-2.5 0v19.375H1.25a1.25 1.25 0 100 2.5h.887a3.73 3.73 0 00-.262 1.375 3.754 3.754 0 003.75 3.75 3.73 3.73 0 002.5-.958 3.73 3.73 0 002.5.958 3.754 3.754 0 003.75-3.75c0-.485-.094-.949-.262-1.375h3.774c-.168.426-.262.89-.262 1.375a3.754 3.754 0 003.75 3.75 3.73 3.73 0 002.5-.958 3.73 3.73 0 002.5.958 3.754 3.754 0 003.75-3.75c0-.485-.094-.949-.262-1.375h.887a1.25 1.25 0 100-2.5zM5.625 27.63a1.25 1.25 0 110-2.5 1.25 1.25 0 010 2.5zm5 0a1.25 1.25 0 110-2.5 1.25 1.25 0 010 2.5zm10.75 0a1.25 1.25 0 110-2.5 1.25 1.25 0 010 2.5zm5 0a1.25 1.25 0 110-2.5 1.25 1.25 0 010 2.5z" fill="#c2ae82"/><path d="M8.375 8.754c.69 0 1.25.56 1.25 1.25v8.75a1.25 1.25 0 11-2.5 0v-8.75c0-.69.56-1.25 1.25-1.25zm5 0c.69 0 1.25.56 1.25 1.25v8.75a1.25 1.25 0 11-2.5 0v-8.75c0-.69.56-1.25 1.25-1.25zm5 0c.69 0 1.25.56 1.25 1.25v8.75a1.25 1.25 0 11-2.5 0v-8.75c0-.69.56-1.25 1.25-1.25zm5 0c.69 0 1.25.56 1.25 1.25v8.75a1.25 1.25 0 11-2.5 0v-8.75c0-.69.56-1.25 1.25-1.25z" fill="#d3c29e"/></svg>