<svg width="33" height="33" viewBox="0 0 33 33" fill="#c2ae82" xmlns="http://www.w3.org/2000/svg"><g clip-path="url(#clip0)"><path d="M4.589 20.71l2.121 2.121a1.25 1.25 0 001.768-1.767l-2.121-2.122-1.768 1.768zm7.508.266L8.21 17.089l1.768-1.768 3.887 3.887a1.25 1.25 0 11-1.768 1.768zm1.75-5.281l-2.122-2.121 1.768-1.768 2.121 2.121a1.25 1.25 0 01-1.768 1.768zm5.313-1.782l-3.887-3.887 1.768-1.768 3.887 3.887a1.25 1.25 0 11-1.768 1.768zm-.282-7.492l2.121 2.121a1.25 1.25 0 101.768-1.767l-2.122-2.122-1.767 1.768z" fill="#d3c29e"/><path d="M7.831 31.6l-5.74-5.74a4.376 4.376 0 010-6.181L19.615 2.156a4.376 4.376 0 016.182 0l5.74 5.74a4.356 4.356 0 011.277 3.09 4.36 4.36 0 01-1.28 3.093L20.444 25.13a1.249 1.249 0 01-1.764-1.77l11.09-11.05c.73-.73.73-1.919 0-2.65l-5.74-5.739a1.875 1.875 0 00-2.648 0L3.858 21.445c-.73.73-.73 1.918 0 2.649l5.74 5.74c.73.73 1.918.73 2.648 0l2.186-2.186a1.249 1.249 0 111.766 1.766L14.012 31.6a4.376 4.376 0 01-6.18 0z" fill="#c2ae82"/></g><defs><clipPath id="clip0"><path fill="#fff" transform="translate(.813 .878)" d="M0 0h32v32H0z"/></clipPath></defs></svg>