<svg width="32" height="33" viewBox="0 0 32 33" fill="none" xmlns="http://www.w3.org/2000/svg"><g clip-path="url(#clip0)"><path d="M16.905 25.24a1.25 1.25 0 00-.243-1.751 23.435 23.435 0 01-3.04-2.752 22.67 22.67 0 01-5.498-10.262 11.99 11.99 0 003.232-3.819 1.25 1.25 0 00-2.205-1.178 9.427 9.427 0 01-3.115 3.419A1.25 1.25 0 005.5 10.19c.952 4.654 3.067 8.774 6.29 12.247a25.92 25.92 0 003.365 3.047 1.248 1.248 0 001.75-.244z" fill="#d3c29e"/><path d="M15.938 32.004c-.191 0-.383-.044-.559-.131-.146-.074-3.622-1.836-7.259-5.79a30.746 30.746 0 01-5.204-7.721C1.265 14.856.285 11.017.003 6.953A1.25 1.25 0 011.168 5.62a4.382 4.382 0 004.083-4.365c0-.69.56-1.25 1.25-1.25h19c.69 0 1.25.56 1.25 1.25a4.383 4.383 0 004.08 4.365 1.25 1.25 0 011.162 1.365c-.427 4.513-1.673 8.734-3.704 12.545a1.25 1.25 0 01-2.206-1.175c1.7-3.193 2.806-6.703 3.292-10.45a6.906 6.906 0 01-5.01-5.4H7.637a6.905 6.905 0 01-5.042 5.408c.657 6.306 3.108 11.82 7.295 16.403 2.506 2.743 4.964 4.362 6.041 5.003 1.18-.718 4.031-2.645 6.808-5.987a1.25 1.25 0 111.923 1.597c-3.951 4.757-7.984 6.852-8.154 6.94a1.249 1.249 0 01-.57.136z" fill="#c2ae82"/></g><defs><clipPath id="clip0"><path fill="#d3c29e" transform="translate(0 .004)" d="M0 0h32v32H0z"/></clipPath></defs></svg>